PathFileType	4	(X/Y/Z)	C:\Users\Basilio\Documents\Thesis Gigler\squatting_fais\c3dfiles\076\SLS_back_pre4\markers_experimental.trc
DataRate	CameraRate	NumFrames	NumMarkers	Units	OrigDataRate	OrigDataStartFrame	OrigNumFrames
200.000000	200.000000	4	61	mm	200.000000	1133	1814
Frame#	Time	FHD			LBHD			RBHD			C7			T10			CLAV			LSHO			LUUPA			LMUPA			LDUPA			LLEP			LMEP			LRAD			LUL			LRFIN			RSHO			RUPA1			RMUPA			RDUPA			RLEP			RMEP			RRAD			RUL			RUFIN			LASI			RASI			USACR			LSACR			RSACR			LTHI1			LTHI2			LTHI3			LTHI4			LLFC			LMFC			LTIB1			LTIB2			LTIB3			LTIB4			LLMAL			LMMAL			LHEE			LMT1			LMT2			LMT5			RTHI			RTHI2			RTHI3			RTHI4			RLFC			RMFC			RTIB1			RTIB2			RTIB3			RTIB4			RLMAL			RMMAL			RHEE			RMT1			RMT2			RMT5			
		X1	Y1	Z1	X2	Y2	Z2	X3	Y3	Z3	X4	Y4	Z4	X5	Y5	Z5	X6	Y6	Z6	X7	Y7	Z7	X8	Y8	Z8	X9	Y9	Z9	X10	Y10	Z10	X11	Y11	Z11	X12	Y12	Z12	X13	Y13	Z13	X14	Y14	Z14	X15	Y15	Z15	X16	Y16	Z16	X17	Y17	Z17	X18	Y18	Z18	X19	Y19	Z19	X20	Y20	Z20	X21	Y21	Z21	X22	Y22	Z22	X23	Y23	Z23	X24	Y24	Z24	X25	Y25	Z25	X26	Y26	Z26	X27	Y27	Z27	X28	Y28	Z28	X29	Y29	Z29	X30	Y30	Z30	X31	Y31	Z31	X32	Y32	Z32	X33	Y33	Z33	X34	Y34	Z34	X35	Y35	Z35	X36	Y36	Z36	X37	Y37	Z37	X38	Y38	Z38	X39	Y39	Z39	X40	Y40	Z40	X41	Y41	Z41	X42	Y42	Z42	X43	Y43	Z43	X44	Y44	Z44	X45	Y45	Z45	X46	Y46	Z46	X47	Y47	Z47	X48	Y48	Z48	X49	Y49	Z49	X50	Y50	Z50	X51	Y51	Z51	X52	Y52	Z52	X53	Y53	Z53	X54	Y54	Z54	X55	Y55	Z55	X56	Y56	Z56	X57	Y57	Z57	X58	Y58	Z58	X59	Y59	Z59	X60	Y60	Z60	X61	Y61	Z61	

1134	5.665	-23.53229331970215	1317.560180664063	-1035.201904296875	-169.1623840332032	1260.71044921875	-1133.13916015625	-155.7136383056641	1265.736694335938	-981.1128540039065	-228.3886718750001	1181.357666015625	-1047.572143554688	-416.5629272460939	937.8015136718752	-1009.438781738281	-139.7537078857422	1057.437622070313	-1050.093872070313	-187.4606323242188	1122.936889648438	-1199.006958007813	-88.52260589599611	1043.132080078125	-1309.75	-45.52447891235352	1047.711669921875	-1285.899047851563	-33.06591796875001	1019.431701660156	-1339.609497070313	6.592525482177736	987.8626708984377	-1364.596435546875	9.654684066772463	923.6870727539065	-1314.57421875	258.8741149902344	975.044860839844	-1333.26904296875	252.4232940673829	973.632751464844	-1398.605346679688	337.8934936523438	991.6290283203127	-1341.524291992188	-167.1285705566407	1129.103515625	-907.7390747070315	-68.24561309814455	1042.04345703125	-793.5980224609377	-27.20239067077637	1060.291015625	-812.931823730469	-5.242532253265382	1013.746704101563	-779.8701782226565	61.29800415039064	994.5101318359377	-775.3054809570315	55.003231048584	940.9057617187502	-831.390319824219	297.3553771972657	991.592468261719	-866.5026855468752	299.7027587890626	986.9162597656252	-799.7683715820315	370.4175415039063	1012.394287109375	-860.7148437500002	-362.6989746093751	721.9957275390626	-1114.600952148438	-360.7357788085938	693.3935546875001	-904.2639160156252	-481.4096984863282	842.992370605469	-996.8759765625002	-504.934051513672	824.3115844726565	-1026.226440429688	-500.7564697265626	816.1501464843752	-969.6970825195315	-396.8885192871095	636.6065063476564	-1195.89306640625	-319.8314819335938	601.3081665039064	-1193.933837890625	-287.2385253906251	631.8829956054689	-1172.713745117188	-304.9018554687501	541.9877929687501	-1187.619995117188	-201.4125366210938	425.7870483398439	-1157.67919921875	-185.3353576660157	440.8567810058595	-1045.35888671875	-207.6368255615235	300.6495971679688	-1056.912719726563	-249.9669494628907	244.0420227050782	-1111.272094726563	-223.0212860107422	246.2855834960938	-1071.896850585938	-273.2782592773438	196.4912719726563	-1026.504150390625	-376.9579162597657	103.9966278076172	-1061.237060546875	-347.1253662109376	122.46533203125	-981.9173583984377	-441.2669372558595	97.10334014892581	-1008.537963867188	-239.8301849365235	52.45935440063478	-992.990905761719	-234.4383392333985	48.30162048339845	-1031.774536132813	-259.1773681640626	43.22183990478516	-1081.197143554688	-473.9536132812501	474.4673461914064	-838.735534667969	-441.6206970214845	414.0511474609376	-838.3566894531252	-408.2237243652345	411.6692504882814	-847.3911743164065	-479.2653198242189	341.0989685058594	-855.7194824218752	-488.9578552246095	298.1313171386719	-865.1672973632815	-472.0302124023439	287.8490600585938	-977.6744384765627	-596.6218872070314	230.7405853271485	-904.4654541015627	-683.6651611328126	294.1807250976563	-889.6072387695315	-681.7606811523439	248.8802795410157	-902.153991699219	-720.0817260742189	236.0475158691407	-945.3897705078127	-865.600769042969	285.0451965332032	-932.5450439453127	-834.335144042969	270.2655029296876	-1011.710205078125	-877.306335449219	347.0403747558594	-973.245056152344	-899.747009277344	150.7123565673828	-1029.50146484375	-907.0529785156252	136.6473999023438	-985.548522949219	-936.0518188476565	159.0674743652344	-934.9841918945315	
1135	5.67	-24.40873908996583	1319.635131835938	-1035.001342773438	-170.04833984375	1262.38427734375	-1132.948486328125	-156.5039367675782	1267.697631835938	-980.9757080078127	-228.7850341796876	1183.102905273438	-1047.409423828125	-416.5209350585939	938.972351074219	-1009.423095703125	-140.2166442871094	1059.112915039063	-1050.054443359375	-188.2813568115235	1124.470458984375	-1198.917114257813	-90.16734313964845	1043.673583984375	-1309.737670898438	-46.57215881347657	1047.944458007813	-1286.2998046875	-34.52268981933594	1019.556274414063	-1339.817626953125	5.807424545288087	987.3571777343752	-1364.666870117188	8.392029762268068	923.161560058594	-1314.2275390625	256.9538269042969	973.7491455078127	-1333.125366210938	250.8159332275391	972.253601074219	-1398.472778320313	336.7826538085938	989.5400390625002	-1341.2822265625	-167.9239654541016	1130.408569335938	-907.3463134765627	-69.77366638183595	1042.2158203125	-793.0664062500002	-28.46666526794434	1060.340209960938	-812.1868896484377	-7.074920654296877	1013.333740234375	-779.1221923828127	59.48600006103517	993.6568603515627	-774.4729003906252	52.81402587890626	940.1528930664065	-831.0020751953127	295.1745605468751	990.1677856445315	-866.5736083984377	297.8024597167969	985.2484130859377	-799.993591308594	367.9974975585938	1011.3232421875	-861.2581176757815	-362.4318847656251	722.9360961914064	-1114.582641601563	-360.2449035644532	694.6813964843751	-904.2400512695315	-481.0901794433595	844.1334228515627	-996.9080200195315	-504.6356201171876	825.2238769531252	-1026.253295898438	-500.3621826171876	817.196472167969	-969.6584472656252	-396.3692016601564	637.2068481445314	-1195.64404296875	-319.4761047363282	601.6620483398439	-1193.896118164063	-286.8356323242188	632.2620849609376	-1172.701293945313	-304.7252807617188	542.4165649414064	-1187.274536132813	-201.4384460449219	425.975311279297	-1157.286376953125	-185.4275054931641	440.9608154296876	-1045.101440429688	-207.6251983642579	300.5707397460938	-1056.274047851563	-249.9958496093751	244.1397094726563	-1111.172729492188	-223.0989227294922	246.344223022461	-1071.728149414063	-273.3301391601563	196.5719146728516	-1026.3818359375	-376.9492797851563	104.0352630615235	-1061.150390625	-347.1563110351563	122.3998794555664	-981.800720214844	-441.2630004882814	97.11443328857425	-1008.519226074219	-239.8286590576172	52.47436904907228	-992.9636230468752	-234.4197845458985	48.28499984741212	-1031.725341796875	-259.0966186523438	43.21249008178712	-1081.183349609375	-473.2396545410157	475.6306152343751	-838.440856933594	-441.0350646972657	415.342742919922	-838.2487792968752	-407.5086059570314	412.8622131347657	-847.0588378906252	-478.5419921875001	342.3676757812501	-855.5672607421877	-488.2301635742189	299.3209533691407	-864.9495239257815	-471.5672607421876	288.9768981933594	-977.4724121093752	-595.7698974609376	231.8541717529297	-904.1925048828127	-683.0488281250001	295.1476745605469	-889.5040283203127	-681.0643310546876	249.9019927978516	-901.9976196289065	-719.3408813476564	237.0208892822266	-945.3436279296877	-864.8330078125002	285.8127136230469	-932.4188232421877	-833.7656860351565	271.1553955078126	-1011.644653320313	-876.5828857421877	347.8614501953126	-973.081237792969	-898.866149902344	151.3709106445313	-1029.234741210938	-906.1951293945315	137.3718414306641	-985.372009277344	-935.1184082031252	159.9796905517578	-934.8552856445315	
1136	5.675	-25.42064666748048	1322.015258789063	-1034.758178710938	-169.5403137207032	1264.870361328125	-1132.76220703125	-157.1960601806641	1269.524780273438	-980.7545166015627	-229.4985046386719	1184.680419921875	-1047.20361328125	-416.5266418457032	940.0739746093752	-1009.411499023438	-140.4605255126953	1061.158081054688	-1049.8359375	-188.7972564697266	1126.026245117188	-1198.881225585938	-91.34804534912111	1044.031616210938	-1309.835205078125	-47.77256393432618	1048.180297851563	-1286.508911132813	-35.9981918334961	1019.481018066406	-1340.066284179688	3.049946069717408	987.0596923828127	-1364.925170898438	5.703992843627931	923.0317993164065	-1314.4248046875	255.1717681884766	972.2780761718752	-1333.1474609375	248.8632965087891	970.6298828125002	-1398.487548828125	334.5245971679688	987.406677246094	-1341.522827148438	-168.6238403320313	1131.642700195313	-906.810974121094	-71.42705535888673	1042.178100585938	-792.784362792969	-29.92688941955567	1060.187133789063	-811.5972290039065	-8.818308830261232	1013.081359863281	-778.3931884765627	57.399959564209	992.7981567382815	-773.7026367187502	50.58102416992189	939.404724121094	-830.3459472656252	292.8734130859376	988.8365478515627	-867.0371704101565	295.7355346679688	983.6348876953127	-800.3884887695315	365.9722290039063	1009.899658203125	-861.632995605469	-362.1313476562501	723.9916381835939	-1114.625610351563	-359.7503967285157	695.9140014648439	-904.269958496094	-480.7462463378907	845.2078857421877	-996.894714355469	-504.3824768066407	826.2840576171877	-1026.351806640625	-499.9358825683595	818.280456542969	-969.664489746094	-395.7969360351564	637.9296264648439	-1195.518798828125	-319.1019592285157	602.0496826171876	-1193.871948242188	-286.5155944824219	632.6012573242189	-1172.702758789063	-304.4492187500001	542.8308715820314	-1187.04931640625	-201.4374084472657	426.0789489746095	-1157.043823242188	-185.5162658691407	441.1179809570314	-1044.76123046875	-207.7444763183594	300.6806945800782	-1056.067993164063	-250.0793762207032	244.1696166992188	-1111.028686523438	-223.1632843017579	246.4314880371094	-1071.521118164063	-273.3848266601563	196.6077117919922	-1026.223754882813	-377.0363464355469	104.0917129516602	-1061.135131835938	-347.2034912109376	122.3558502197266	-981.726745605469	-441.2561645507814	97.08119201660159	-1008.507080078125	-239.8749084472657	52.43214416503908	-992.9467773437502	-234.3986206054688	48.24708175659181	-1031.711303710938	-259.1185302734376	43.20401000976563	-1081.202880859375	-472.5446166992189	476.6977539062501	-838.2807617187502	-440.2034912109376	416.5729980468751	-838.0603027343752	-406.8764038085939	413.7924804687501	-846.907165527344	-477.7985839843751	343.4775085449219	-855.3610839843752	-487.5130615234376	300.4925537109376	-864.659118652344	-470.803436279297	290.1229553222657	-977.4012451171877	-595.0568237304689	233.0164489746094	-904.032897949219	-682.2266845703126	296.3360595703126	-889.3631591796877	-680.2113647460939	250.5501403808594	-901.791198730469	-718.5852661132814	237.9297790527344	-945.1240844726565	-864.1187744140627	286.6917419433594	-932.2789306640627	-833.050231933594	272.1944580078126	-1011.63720703125	-875.7407836914065	348.6352539062501	-973.0458984375002	-898.1512451171877	152.1136474609375	-1029.055053710938	-905.463317871094	138.0850677490235	-985.506286621094	-934.2440185546877	160.7972564697266	-934.6929321289065	
1137	5.68	-26.23260498046876	1323.984252929688	-1034.554565429688	-171.4546051025391	1266.305541992188	-1132.334228515625	-157.8447418212891	1271.331176757813	-980.6041259765627	-230.0323486328126	1186.523193359375	-1046.912109375	-416.4918823242189	941.3284912109377	-1009.408996582031	-140.9281005859375	1062.961059570313	-1049.782958984375	-189.6180572509766	1127.495849609375	-1198.880615234375	-92.81858062744142	1044.3818359375	-1309.90869140625	-49.05928421020509	1048.453857421875	-1286.830810546875	-37.51145553588868	1019.316589355469	-1340.200317382813	2.054148674011231	986.4873657226565	-1364.9873046875	3.46796464920044	922.5681152343752	-1314.158447265625	253.132553100586	970.7579345703127	-1332.924926757813	247.1009063720704	968.862976074219	-1398.2568359375	333.1600341796876	985.040222167969	-1341.090087890625	-169.1956024169922	1133.192504882813	-906.4381103515627	-72.85680389404298	1042.7099609375	-791.8416137695315	-31.30543518066407	1059.9931640625	-810.811218261719	-10.79026412963867	1012.637634277344	-777.7979736328127	55.47966384887697	991.8948974609377	-773.0339355468752	47.9956283569336	938.5593872070315	-829.348327636719	290.2550354003907	987.5293579101565	-867.1983642578127	293.7376403808594	981.740661621094	-800.5813598632815	363.6254272460938	1008.317077636719	-862.1046142578127	-361.2221374511719	725.5398559570314	-1114.472045898438	-359.2539062500001	697.2615356445314	-904.2138671875002	-480.4288330078126	846.1066894531252	-996.8203125000002	-503.9752807617189	827.2920532226565	-1026.419799804688	-499.6439819335939	819.1839599609377	-969.623718261719	-395.2964782714845	638.5700683593751	-1195.486206054688	-318.6913452148438	602.3663940429689	-1193.703857421875	-286.0875244140626	632.8336181640626	-1172.733520507813	-304.1500854492188	543.1370849609376	-1186.835571289063	-201.4622650146485	426.1750488281251	-1156.63134765625	-185.6189117431641	441.2308044433595	-1044.471313476563	-207.9308776855469	300.7454223632813	-1055.7890625	-250.0044250488282	244.2590332031251	-1110.890869140625	-223.2178344726563	246.5397186279297	-1071.288940429688	-273.4283752441407	196.6213684082032	-1026.083618164063	-377.1548767089844	104.1634368896485	-1061.001342773438	-347.2015380859376	122.2978897094727	-981.596130371094	-441.2341613769532	97.10408020019534	-1008.475769042969	-239.8303527832032	52.35872268676759	-992.9249267578127	-234.4803619384766	48.2617645263672	-1031.656494140625	-259.0936279296876	43.20187377929688	-1081.20361328125	-471.8875122070314	477.9566345214845	-838.189636230469	-439.5286560058595	417.5991516113282	-837.9177246093752	-406.0213623046876	415.246795654297	-846.7603759765627	-477.0642089843751	344.5531005859376	-855.2314453125002	-486.6734619140626	301.6383666992188	-864.4189453125002	-469.9562072753907	291.2032470703126	-977.023376464844	-594.3966064453126	233.9343566894532	-903.808044433594	-681.4906005859376	297.2078857421876	-889.1757812500002	-679.3533935546876	251.845932006836	-901.679626464844	-717.7615356445314	239.0321655273438	-944.7991333007815	-863.3479003906252	287.5821228027344	-932.2266235351565	-832.1179199218752	272.8756103515626	-1011.43310546875	-874.9814453125002	349.4845886230469	-972.9712524414065	-897.3826293945315	152.9838409423828	-1029.090087890625	-904.534606933594	138.8737335205078	-985.4201660156252	-933.4053955078127	161.6403350830078	-934.6380615234377	
